<svg xmlns="http://www.w3.org/2000/svg" width="230mm" height="120mm" viewBox="0 0 230 120"><defs><path id="a" d="M250.266 219.962h488.502v262.964H250.266z"/></defs><rect width="362.298" height="213.493" x="-31.895" y="-23.628" ry=".018" style="fill:#ececec;stroke-width:.79375;stroke-linejoin:bevel"/><g style="overflow:hidden;fill:#0047ab;fill-opacity:1"><path d="m122.08 55.695-17.482 17.481-8.158-8.158-5.827 5.828 13.985 13.985 23.309-23.309z" style="fill:#0047ab;stroke-width:.03642;fill-opacity:1" transform="translate(-237.514 -166.695) scale(3.22638)"/></g><g aria-label="PLM" style="font-style:italic;font-weight:700;font-size:192px;line-height:1.25;font-family:&quot;Cascadia Code&quot;;-inkscape-font-specification:&quot;Cascadia Code Bold Italic&quot;;letter-spacing:0;word-spacing:0;white-space:pre;shape-inside:url(#a);fill:#ececec" transform="matrix(.26458 0 0 .26458 -1.587 -17.992)"><path d="M279.066 282.36h-19.2v115.2h19.2v-57.6h57.6v-57.6zm38.4 38.4h-38.4v-19.2h38.4zM375.066 282.36h-19.2v115.2h76.8v-19.2h-57.6zM509.466 282.36H451.866v115.2h19.2v-96h19.2v96h19.2v-96h19.2v96h19.2v-115.2h-19.2z" style="font-style:normal;font-family:Square;-inkscape-font-specification:&quot;Square Bold&quot;"/></g></svg>